<svg id="Calque_1" data-name="Calque 1" xmlns="http://www.w3.org/2000/svg" xmlns:xlink="http://www.w3.org/1999/xlink" viewBox="0 0 253.19 66.68"><defs><style>.cls-1{fill:#8f78ff;}.cls-2{fill:none;}.cls-3{font-size:47.67px;font-family:BernardMT-Condensed, Bernard MT Condensed;}</style></defs><path class="cls-1" d="M77.18,55.7H72.32l-.9,2.48H69.89l4-11.08H75.6l4,11.08H78.08Zm-.41-1.18-2-5.63-2,5.63Zm4.06-.75a4.88,4.88,0,0,1,.54-2.35,4,4,0,0,1,1.49-1.59A4.19,4.19,0,0,1,85,49.27a3.92,3.92,0,0,1,1.91.48A3.4,3.4,0,0,1,88.25,51V46.34h1.47V58.18H88.25V56.54A3.44,3.44,0,0,1,87,57.83a3.83,3.83,0,0,1-2,.5,4,4,0,0,1-3.62-2.19A5.11,5.11,0,0,1,80.83,53.77Zm7.42,0a3.5,3.5,0,0,0-.4-1.72,2.68,2.68,0,0,0-1.09-1.12,2.79,2.79,0,0,0-1.48-.4,2.9,2.9,0,0,0-1.49.38A2.75,2.75,0,0,0,82.72,52a3.54,3.54,0,0,0-.4,1.73,3.66,3.66,0,0,0,.4,1.76,2.78,2.78,0,0,0,1.07,1.13,2.91,2.91,0,0,0,1.49.39,2.87,2.87,0,0,0,1.48-.39,2.76,2.76,0,0,0,1.09-1.13A3.62,3.62,0,0,0,88.25,53.78Zm14.48-4.52a3.74,3.74,0,0,1,1.82.43A3,3,0,0,1,105.82,51a4.28,4.28,0,0,1,.46,2.07v5.16h-1.44v-5a2.79,2.79,0,0,0-.66-2,2.21,2.21,0,0,0-1.74-.7,2.34,2.34,0,0,0-1.81.74,2.93,2.93,0,0,0-.67,2.09v4.83H98.52v-5a2.79,2.79,0,0,0-.66-2,2.21,2.21,0,0,0-1.74-.7,2.34,2.34,0,0,0-1.81.74,2.93,2.93,0,0,0-.67,2.09v4.83H92.18V49.42h1.46v1.26a2.93,2.93,0,0,1,1.15-1.06,3.63,3.63,0,0,1,1.62-.36,3.82,3.82,0,0,1,2,.49,3,3,0,0,1,1.26,1.46,2.87,2.87,0,0,1,1.22-1.44A3.59,3.59,0,0,1,102.73,49.26ZM109.42,48a1,1,0,0,1,0-2,.85.85,0,0,1,.67.29,1,1,0,0,1,0,1.4A.85.85,0,0,1,109.42,48Zm.7,1.43v8.76h-1.45V49.42Zm6.76-.16a3.54,3.54,0,0,1,2.59,1,3.71,3.71,0,0,1,1,2.79v5.16H119v-5a2.83,2.83,0,0,0-.65-2,2.34,2.34,0,0,0-1.8-.7,2.4,2.4,0,0,0-1.83.72,3,3,0,0,0-.68,2.1v4.84h-1.45V49.42h1.45v1.24a3,3,0,0,1,1.17-1A3.76,3.76,0,0,1,116.88,49.26Zm17.68,1a3.11,3.11,0,0,1-1,2.32,4.05,4.05,0,0,1-2.89.91h-2.15v4.65h-1.45V47h3.6a4.09,4.09,0,0,1,2.86.91A3.07,3.07,0,0,1,134.56,50.3Zm-3.85,2a2.6,2.6,0,0,0,1.79-.53,1.94,1.94,0,0,0,.57-1.5c0-1.38-.79-2.07-2.36-2.07h-2.15v4.1Zm5.12,1.44a4.88,4.88,0,0,1,.54-2.35,4,4,0,0,1,1.49-1.59,4.18,4.18,0,0,1,2.13-.56,3.91,3.91,0,0,1,2,.5A3.29,3.29,0,0,1,143.25,51v-1.6h1.47v8.76h-1.47V56.55A3.52,3.52,0,0,1,142,57.83a4.17,4.17,0,0,1-4.1-.08,4.07,4.07,0,0,1-1.49-1.61A5.11,5.11,0,0,1,135.83,53.77Zm7.42,0a3.5,3.5,0,0,0-.4-1.72,2.68,2.68,0,0,0-1.09-1.12,2.79,2.79,0,0,0-1.48-.4,2.9,2.9,0,0,0-1.49.38A2.75,2.75,0,0,0,137.72,52a3.54,3.54,0,0,0-.4,1.73,3.66,3.66,0,0,0,.4,1.76,2.78,2.78,0,0,0,1.07,1.13,2.91,2.91,0,0,0,1.49.39,2.87,2.87,0,0,0,1.48-.39,2.76,2.76,0,0,0,1.09-1.13A3.62,3.62,0,0,0,143.25,53.78Zm8.21-4.52a3.54,3.54,0,0,1,2.59,1A3.71,3.71,0,0,1,155,53v5.16H153.6v-5a2.79,2.79,0,0,0-.66-2,2.31,2.31,0,0,0-1.79-.7,2.43,2.43,0,0,0-1.84.72,3,3,0,0,0-.67,2.1v4.84h-1.46V49.42h1.46v1.24a3,3,0,0,1,1.17-1A3.76,3.76,0,0,1,151.46,49.26Zm14,4.2c0,.28,0,.57,0,.88h-7a2.93,2.93,0,0,0,.88,2,2.88,2.88,0,0,0,2,.72,2.69,2.69,0,0,0,1.57-.44,2.28,2.28,0,0,0,.89-1.18h1.57a3.74,3.74,0,0,1-1.41,2.06,4.21,4.21,0,0,1-2.62.79,4.51,4.51,0,0,1-2.24-.56,4.06,4.06,0,0,1-1.54-1.59,5.51,5.51,0,0,1,0-4.78,3.77,3.77,0,0,1,1.52-1.57,4.57,4.57,0,0,1,2.27-.56,4.34,4.34,0,0,1,2.21.55,3.66,3.66,0,0,1,1.47,1.5A4.33,4.33,0,0,1,165.42,53.46Zm-1.51-.3a2.68,2.68,0,0,0-.36-1.42,2.36,2.36,0,0,0-1-.92,3.06,3.06,0,0,0-1.39-.32,2.72,2.72,0,0,0-1.89.71,2.87,2.87,0,0,0-.88,1.95Zm4.89-6.82V58.18h-1.46V46.34Z"/><rect class="cls-2" y="1.68" width="65" height="65"/><text class="cls-3" transform="translate(70.26 42.62) scale(1.69 1)">Armel</text><image width="246" height="257" transform="translate(6.74 3.05) scale(0.24 0.24)" xlink:href="../preject_final/frontend/src/components/Assets/logo.png"/></svg>