<svg id="Calque_1" data-name="Calque 1" xmlns="http://www.w3.org/2000/svg" viewBox="0 0 32.46 29.52"><defs><style>.cls-1{fill:#262324;}.cls-2{fill:#f29100;}.cls-2,.cls-3,.cls-4{stroke:#000;stroke-miterlimit:10;stroke-width:0.1px;}.cls-3{fill:#f8b133;}.cls-4{fill:#1d70b7;}</style></defs><path class="cls-1" d="M21.92,22.67H13.29c-.65,0-.89-.22-1.09-1.06q-2-8.75-4.07-17.49c-.09-.4-.21-.56-.54-.55-1.27,0-2.53,0-3.8,0a.42.42,0,0,0-.43.29,1.6,1.6,0,0,1-2.06,1A2.47,2.47,0,0,1,0,2.47,2.53,2.53,0,0,1,1.26.13a1.59,1.59,0,0,1,2.09.94.46.46,0,0,0,.48.3H8.35c.72,0,.93.2,1.14,1.1q2,8.72,4.07,17.44c.08.37.18.53.5.53H30.62a1,1,0,0,1,1,1.18,1,1,0,0,1-1,1.07h-8.7Z"/><path class="cls-2" d="M11.5,9c7-.07,13.87-.08,20.85.07C30.37,11.26,13.3,11.2,11.5,9Z"/><path class="cls-1" d="M17,29.51c-1.3,0-2.35-1.41-2.34-3.17s1.06-3.15,2.37-3.15,2.34,1.42,2.34,3.18S18.35,29.52,17,29.51Z"/><path class="cls-1" d="M29.82,26.34c0,1.76-1,3.17-2.35,3.18s-2.38-1.43-2.37-3.2,1.08-3.13,2.36-3.13S29.82,24.59,29.82,26.34Z"/><path class="cls-3" d="M13.08,13.54c5.89-.13,11.79-.15,17.75,0C28.87,15.53,15.68,15.52,13.08,13.54Z"/><path class="cls-4" d="M29.41,17.69a23.62,23.62,0,0,1-15,0C19.42,17.45,24.41,17.5,29.41,17.69Z"/></svg>