<svg id="Calque_1" data-name="Calque 1" xmlns="http://www.w3.org/2000/svg" viewBox="0 0 33.03 30.32"><defs><style>.cls-1{fill:#0099cd;}.cls-2{fill:#ed6e19;}.cls-3{fill:#ffce00;}.cls-4{fill:#a7d1a0;}.cls-5{fill:#90d3ed;}.cls-6,.cls-7{fill:#0af;}.cls-6{stroke:#fff;stroke-miterlimit:10;stroke-width:0.25px;}.cls-8{fill:#fff;}</style></defs><path class="cls-1" d="M30.27,30.32H2.76A2.62,2.62,0,0,1,0,27.87v-15a2.62,2.62,0,0,1,2.76-2.46H30.27A2.62,2.62,0,0,1,33,12.82V27.87A2.62,2.62,0,0,1,30.27,30.32Z"/><path class="cls-2" d="M27.17,5.64H5.78A2.2,2.2,0,0,0,3.47,7.7V9.3h26V7.7A2.2,2.2,0,0,0,27.17,5.64Z"/><path class="cls-3" d="M24.7.86H8.4A2.2,2.2,0,0,0,6.09,2.92V4.53H27V2.92A2.21,2.21,0,0,0,24.7.86Z"/><circle class="cls-4" cx="7.97" cy="16.28" r="1.55"/><circle class="cls-4" cx="7.97" cy="20.82" r="1.55"/><circle class="cls-4" cx="7.97" cy="25.45" r="1.55"/><rect class="cls-5" x="12.22" y="15.05" width="14.8" height="2.45" rx="1.23"/><rect class="cls-5" x="12.22" y="19.6" width="14.8" height="2.45" rx="1.23"/><rect class="cls-5" x="12.22" y="24.15" width="14.8" height="2.45" rx="1.23"/><path class="cls-6" d="M15.31.51h3a.64.64,0,0,1,.64.64v.68a.64.64,0,0,1-.64.64h-3a.64.64,0,0,1-.64-.64V1.16a.65.65,0,0,1,.65-.65Z"/><rect class="cls-7" x="15.79" width="2.12" height="1.39"/><path class="cls-8" d="M16.75.86a.56.56,0,1,1-.55.56A.56.56,0,0,1,16.75.86Z"/></svg>